<?xml version="1.0" encoding="UTF-8" standalone="no"?>
<!DOCTYPE svg PUBLIC "-//W3C//DTD SVG 1.1//EN" "http://www.w3.org/Graphics/SVG/1.1/DTD/svg11.dtd">
<svg width="100%" height="100%" viewBox="0 0 635 600" version="1.1" xmlns="http://www.w3.org/2000/svg" xmlns:xlink="http://www.w3.org/1999/xlink" xml:space="preserve" xmlns:serif="http://www.serif.com/" style="fill-rule:evenodd;clip-rule:evenodd;stroke-linejoin:round;stroke-miterlimit:2;">
    <g transform="matrix(1,0,0,1,-8139,-2500)">
        <g transform="matrix(1,0,0,1,-0.0555556,0)">
            <g transform="matrix(-0.01406,0.123333,-1.93818,-0.220953,14953,2598.21)">
                <path d="M7374,3433.61L7374,3425.39L7661.21,3425.39L7661.21,3400L8274,3429.5L7661.21,3459L7661.21,3433.61L7374,3433.61Z" style="fill:rgb(13,144,157);"/>
            </g>
            <g transform="matrix(-0.708237,-0.705975,0.705975,-0.708237,12004.7,11261.3)">
                <path d="M8548.67,3209.44C8524.27,3203.17 8499.19,3200 8474,3200C8308.42,3200 8174,3334.43 8174,3500C8174,3665.58 8308.42,3800 8474,3800C8639.58,3800 8774,3665.58 8774,3500C8774,3420.43 8742.39,3344.13 8686.13,3287.87L8651.57,3322.43C8698.66,3369.53 8725.12,3433.4 8725.12,3500C8725.12,3638.6 8612.6,3751.12 8474,3751.12C8335.4,3751.12 8222.88,3638.6 8222.88,3500C8222.88,3361.4 8335.4,3248.88 8474,3248.88C8495.08,3248.88 8516.08,3251.54 8536.5,3256.78L8548.67,3209.44Z" style="fill:rgb(13,144,157);"/>
            </g>
            <g transform="matrix(1,0,1.2326e-32,1.5,767.056,-1150.5)">
                <path d="M7734,2510C7734,2504.48 7727.28,2500 7719,2500L7689,2500C7680.72,2500 7674,2504.48 7674,2510L7674,2610C7674,2615.52 7680.72,2620 7689,2620L7719,2620C7727.28,2620 7734,2615.52 7734,2610L7734,2510Z" style="fill:rgb(13,144,157);"/>
            </g>
            <g transform="matrix(-0.551323,0.834292,-1.25144,-0.826985,16039.3,-1441.44)">
                <path d="M7734,2510C7734,2504.48 7727.28,2500 7719,2500L7689,2500C7680.72,2500 7674,2504.48 7674,2510L7674,2610C7674,2615.52 7680.72,2620 7689,2620L7719,2620C7727.28,2620 7734,2615.52 7734,2610L7734,2510Z" style="fill:rgb(13,144,157);"/>
            </g>
        </g>
    </g>
</svg>
