<?xml version="1.0" encoding="UTF-8" standalone="no"?>
<!DOCTYPE svg PUBLIC "-//W3C//DTD SVG 1.1//EN" "http://www.w3.org/Graphics/SVG/1.1/DTD/svg11.dtd">
<svg width="100%" height="100%" viewBox="0 0 600 600" version="1.1" xmlns="http://www.w3.org/2000/svg" xmlns:xlink="http://www.w3.org/1999/xlink" xml:space="preserve" xmlns:serif="http://www.serif.com/" style="fill-rule:evenodd;clip-rule:evenodd;stroke-linejoin:round;stroke-miterlimit:2;">
    <g transform="matrix(1,0,0,1,-7374,-2500)">
        <g transform="matrix(1,0,0,1,-0.0555556,0)">
            <g transform="matrix(1.15385,0,0,1.15385,-1238.25,-419.231)">
                <circle cx="7724" cy="2790" r="130" style="fill:rgb(13,144,157);"/>
            </g>
            <g>
                <g transform="matrix(1,0,0,1,-29.9444,8.56204e-12)">
                    <path d="M7734,2515C7734,2506.72 7727.28,2500 7719,2500L7689,2500C7680.72,2500 7674,2506.72 7674,2515L7674,2605C7674,2613.28 7680.72,2620 7689,2620L7719,2620C7727.28,2620 7734,2613.28 7734,2605L7734,2515Z" style="fill:rgb(13,144,157);"/>
                </g>
                <g transform="matrix(0.707107,0.707107,-0.707107,0.707107,4218.27,-4639.32)">
                    <path d="M7734,2515C7734,2506.72 7727.28,2500 7719,2500L7689,2500C7680.72,2500 7674,2506.72 7674,2515L7674,2605C7674,2613.28 7680.72,2620 7689,2620L7719,2620C7727.28,2620 7734,2613.28 7734,2605L7734,2515Z" style="fill:rgb(13,144,157);"/>
                </g>
                <g transform="matrix(6.12323e-17,1,-1,6.12323e-17,10474.1,-4903)">
                    <path d="M7734,2515C7734,2506.72 7727.28,2500 7719,2500L7689,2500C7680.72,2500 7674,2506.72 7674,2515L7674,2605C7674,2613.28 7680.72,2620 7689,2620L7719,2620C7727.28,2620 7734,2613.28 7734,2605L7734,2515Z" style="fill:rgb(13,144,157);"/>
                </g>
            </g>
            <g transform="matrix(6.12323e-17,1,-1,6.12323e-17,10474.1,-4874.06)">
                <g transform="matrix(1,0,0,1,-29.9444,8.56204e-12)">
                    <path d="M7734,2515C7734,2506.72 7727.28,2500 7719,2500L7689,2500C7680.72,2500 7674,2506.72 7674,2515L7674,2605C7674,2613.28 7680.72,2620 7689,2620L7719,2620C7727.28,2620 7734,2613.28 7734,2605L7734,2515Z" style="fill:rgb(13,144,157);"/>
                </g>
                <g transform="matrix(0.707107,0.707107,-0.707107,0.707107,4218.27,-4639.32)">
                    <path d="M7734,2515C7734,2506.72 7727.28,2500 7719,2500L7689,2500C7680.72,2500 7674,2506.72 7674,2515L7674,2605C7674,2613.28 7680.72,2620 7689,2620L7719,2620C7727.28,2620 7734,2613.28 7734,2605L7734,2515Z" style="fill:rgb(13,144,157);"/>
                </g>
                <g transform="matrix(6.12323e-17,1,-1,6.12323e-17,10474.1,-4903)">
                    <path d="M7734,2515C7734,2506.72 7727.28,2500 7719,2500L7689,2500C7680.72,2500 7674,2506.72 7674,2515L7674,2605C7674,2613.28 7680.72,2620 7689,2620L7719,2620C7727.28,2620 7734,2613.28 7734,2605L7734,2515Z" style="fill:rgb(13,144,157);"/>
                </g>
            </g>
            <g transform="matrix(-1,-1.22465e-16,1.22465e-16,-1,15348.1,5600)">
                <g transform="matrix(1,0,0,1,-29.9444,8.56204e-12)">
                    <path d="M7734,2515C7734,2506.72 7727.28,2500 7719,2500L7689,2500C7680.72,2500 7674,2506.72 7674,2515L7674,2605C7674,2613.28 7680.72,2620 7689,2620L7719,2620C7727.28,2620 7734,2613.28 7734,2605L7734,2515Z" style="fill:rgb(13,144,157);"/>
                </g>
                <g transform="matrix(0.707107,0.707107,-0.707107,0.707107,4218.27,-4639.32)">
                    <path d="M7734,2515C7734,2506.72 7727.28,2500 7719,2500L7689,2500C7680.72,2500 7674,2506.72 7674,2515L7674,2605C7674,2613.28 7680.72,2620 7689,2620L7719,2620C7727.28,2620 7734,2613.28 7734,2605L7734,2515Z" style="fill:rgb(13,144,157);"/>
                </g>
                <g transform="matrix(6.12323e-17,1,-1,6.12323e-17,10474.1,-4903)">
                    <path d="M7734,2515C7734,2506.72 7727.28,2500 7719,2500L7689,2500C7680.72,2500 7674,2506.72 7674,2515L7674,2605C7674,2613.28 7680.72,2620 7689,2620L7719,2620C7727.28,2620 7734,2613.28 7734,2605L7734,2515Z" style="fill:rgb(13,144,157);"/>
                </g>
            </g>
            <g transform="matrix(6.12323e-17,-1,1,6.12323e-17,4874.06,10474.1)">
                <g transform="matrix(1,0,0,1,-29.9444,8.56204e-12)">
                    <path d="M7734,2515C7734,2506.72 7727.28,2500 7719,2500L7689,2500C7680.72,2500 7674,2506.72 7674,2515L7674,2605C7674,2613.28 7680.72,2620 7689,2620L7719,2620C7727.28,2620 7734,2613.28 7734,2605L7734,2515Z" style="fill:rgb(13,144,157);"/>
                </g>
                <g transform="matrix(0.707107,0.707107,-0.707107,0.707107,4218.27,-4639.32)">
                    <path d="M7734,2515C7734,2506.72 7727.28,2500 7719,2500L7689,2500C7680.72,2500 7674,2506.72 7674,2515L7674,2605C7674,2613.28 7680.72,2620 7689,2620L7719,2620C7727.28,2620 7734,2613.28 7734,2605L7734,2515Z" style="fill:rgb(13,144,157);"/>
                </g>
                <g transform="matrix(6.12323e-17,1,-1,6.12323e-17,10474.1,-4903)">
                    <path d="M7734,2515C7734,2506.72 7727.28,2500 7719,2500L7689,2500C7680.72,2500 7674,2506.72 7674,2515L7674,2605C7674,2613.28 7680.72,2620 7689,2620L7719,2620C7727.28,2620 7734,2613.28 7734,2605L7734,2515Z" style="fill:rgb(13,144,157);"/>
                </g>
            </g>
        </g>
    </g>
</svg>
