<?xml version="1.0" encoding="UTF-8" standalone="no"?>
<!DOCTYPE svg PUBLIC "-//W3C//DTD SVG 1.1//EN" "http://www.w3.org/Graphics/SVG/1.1/DTD/svg11.dtd">
<svg width="100%" height="100%" viewBox="0 0 601 600" version="1.1" xmlns="http://www.w3.org/2000/svg" xmlns:xlink="http://www.w3.org/1999/xlink" xml:space="preserve" xmlns:serif="http://www.serif.com/" style="fill-rule:evenodd;clip-rule:evenodd;stroke-linejoin:round;stroke-miterlimit:2;">
    <g transform="matrix(1,0,0,1,-7371,-3200)">
        <g transform="matrix(1,0,0,1,-0.0555556,0)">
            <g transform="matrix(0.995442,0,0,1,33.6022,0)">
                <g transform="matrix(1.18722,0,0,0.833082,-542.91,534.287)">
                    <path d="M7174,3200C7174,3200 6844.52,3199.82 6752.7,3199.82C6661.73,3199.82 6752.7,3800 6752.7,3800L7174,3800L7174,3200Z" style="fill:rgb(13,144,157);"/>
                </g>
                <g transform="matrix(0.890393,0,0,0.998195,807.836,5.77616)">
                    <path d="M7374,3748C7374,3748 7365.68,3356.78 7380.23,3300C7404.84,3204.01 7486.83,3200 7486.83,3200L7486.83,3753L7374,3748Z" style="fill:rgb(7,90,98);"/>
                </g>
                <g transform="matrix(1,0,0,1,0.0555556,-96.1358)">
                    <path d="M7974.18,3796.14C7974.18,3796.14 7574,3796.66 7474,3796.39C7375,3796.14 7374,3843.14 7374,3844.14C7374,3845.14 7374,3896.14 7474,3896.14L7974,3896.14L7974.18,3796.14Z" style="fill:white;"/>
                </g>
                <g transform="matrix(1.00458,0,0,1,769.963,0)">
                    <path d="M7074,3325C7074,3311.2 7062.8,3300 7049,3300L6799,3300C6785.2,3300 6774,3311.2 6774,3325L6774,3375C6774,3388.8 6785.2,3400 6799,3400L7049,3400C7062.8,3400 7074,3388.8 7074,3375L7074,3325Z" style="fill:white;"/>
                </g>
            </g>
        </g>
    </g>
</svg>
